<svg xmlns="http://www.w3.org/2000/svg" width="1500" viewBox="0 0 1125 1125" height="1500" version="1.0">
    <defs>
        <clipPath id="a">
            <path d="M123 403h405v641H123zm0 0"/>
        </clipPath>
        <clipPath id="b">
            <path d="M376.984 1109.563-9.629 722.948 418.88 294.445l386.61 386.61zm0 0"/>
        </clipPath>
        <clipPath id="c">
            <path d="M376.984 1109.563-9.629 722.948 418.88 294.445l386.61 386.61zm0 0"/>
        </clipPath>
        <clipPath id="d">
            <path d="M296.512 576.645a206.396 206.396 0 0 0-10.383 11.171c-3.32 3.852-6.5 7.82-9.531 11.907a207.403 207.403 0 0 0-22.996 39.457 207.572 207.572 0 0 0-10.266 28.699 206.811 206.811 0 0 0-7.25 45.098 206.786 206.786 0 0 0 2.805 45.59 207.114 207.114 0 0 0 3.164 14.921 205.658 205.658 0 0 0 4.25 14.649 204.449 204.449 0 0 0 5.316 14.297 207.489 207.489 0 0 0 6.352 13.87 207.445 207.445 0 0 0 45.941 60.368 207.525 207.525 0 0 0 11.676 9.824 205.582 205.582 0 0 0 12.363 8.934 206.79 206.79 0 0 0 12.985 8.004 207.571 207.571 0 0 0 13.542 7.023 207.22 207.22 0 0 0 14.02 6.012 205.941 205.941 0 0 0 14.426 4.96 206.27 206.27 0 0 0 14.75 3.891 209.686 209.686 0 0 0 14.996 2.793 207.664 207.664 0 0 0 30.402 2.242l-.015-15.011a194.934 194.934 0 0 1-18.84-.934c-3.13-.308-6.25-.695-9.364-1.156-3.109-.465-6.21-1.004-9.293-1.617a191.961 191.961 0 0 1-18.297-4.59 193.71 193.71 0 0 1-8.956-2.961 194.838 194.838 0 0 1-8.801-3.399 197.422 197.422 0 0 1-8.625-3.824 193.054 193.054 0 0 1-24.606-13.949 188.802 188.802 0 0 1-7.71-5.434 190.78 190.78 0 0 1-14.583-11.972 195.057 195.057 0 0 1-6.832-6.504 195.35 195.35 0 0 1-6.504-6.836 190.818 190.818 0 0 1-6.16-7.145 193.9 193.9 0 0 1-11.238-15.156 191.51 191.51 0 0 1-17.758-33.234 191.96 191.96 0 0 1-6.355-17.762 191.92 191.92 0 0 1-7.348-36.953c-.309-3.133-.539-6.27-.695-9.41-.153-3.14-.23-6.285-.23-9.43 0-3.144.077-6.289.23-9.43.156-3.144.386-6.28.695-9.41a192.453 192.453 0 0 1 7.352-36.953 190.47 190.47 0 0 1 2.96-8.953 191.961 191.961 0 0 1 26.59-49.734 187.077 187.077 0 0 1 5.805-7.438 190.7 190.7 0 0 1 12.664-13.969 188.336 188.336 0 0 1 6.836-6.504 191.2 191.2 0 0 1 22.293-17.39c2.613-1.746 5.27-3.43 7.969-5.043a190.685 190.685 0 0 1 16.637-8.887 192.778 192.778 0 0 1 17.425-7.215 189.033 189.033 0 0 1 8.957-2.953 191.92 191.92 0 0 1 9.09-2.515 192.422 192.422 0 0 1 37.273-5.516c3.141-.152 6.286-.23 9.43-.227l84.805.012-.016-15.012-84.804.098c-6.79-.023-13.563.29-20.32.938a205.617 205.617 0 0 0-39.872 7.843 206.414 206.414 0 0 0-19.156 6.836 204.648 204.648 0 0 0-18.39 8.696 204.55 204.55 0 0 0-17.442 10.464 205.11 205.11 0 0 0-16.32 12.137 204.592 204.592 0 0 0-15.043 13.692zm53.175 53.175a131.62 131.62 0 0 0-18.18 22.715 132.444 132.444 0 0 0-9.152 17.125 132.673 132.673 0 0 0-6.54 18.285 131.268 131.268 0 0 0-2.24 9.453 130.727 130.727 0 0 0-1.544 9.594 129.716 129.716 0 0 0-.832 9.68c-.16 3.238-.199 6.476-.117 9.719.078 3.238.277 6.472.594 9.699.32 3.222.758 6.433 1.308 9.629a132.734 132.734 0 0 0 4.723 18.836 132.54 132.54 0 0 0 7.434 17.945 131.598 131.598 0 0 0 4.687 8.516 133.842 133.842 0 0 0 5.297 8.144 132.652 132.652 0 0 0 12.324 15.016c2.235 2.347 4.551 4.61 6.953 6.785a130.42 130.42 0 0 0 7.438 6.258 130.863 130.863 0 0 0 7.875 5.695c2.695 1.8 5.453 3.5 8.273 5.098a130.663 130.663 0 0 0 8.625 4.48 132.253 132.253 0 0 0 37.067 11.254 131.97 131.97 0 0 0 19.367 1.434v-15.028a117.36 117.36 0 0 1-11.469-.562 115.773 115.773 0 0 1-5.7-.703 115.752 115.752 0 0 1-11.265-2.239 117.107 117.107 0 0 1-26.73-10.309 112.34 112.34 0 0 1-4.996-2.831 118.087 118.087 0 0 1-4.856-3.07 118.127 118.127 0 0 1-9.222-6.84 116.555 116.555 0 0 1-4.352-3.754 120.515 120.515 0 0 1-4.16-3.957 117 117 0 0 1-14.555-17.735 116.38 116.38 0 0 1-10.816-20.23 120.214 120.214 0 0 1-2.07-5.356 117.123 117.123 0 0 1-3.332-10.992 118.445 118.445 0 0 1-1.262-5.601c-.371-1.88-.7-3.766-.98-5.66a116.359 116.359 0 0 1-.704-5.7 122.3 122.3 0 0 1-.426-5.726 117.36 117.36 0 0 1 .422-17.211c.188-1.906.422-3.805.703-5.7.282-1.894.61-3.78.98-5.66.376-1.875.794-3.746 1.259-5.601.468-1.86.976-3.703 1.535-5.535a117.108 117.108 0 0 1 3.867-10.809c.73-1.77 1.508-3.52 2.328-5.25a114.41 114.41 0 0 1 2.582-5.129 115.447 115.447 0 0 1 5.902-9.848 115.342 115.342 0 0 1 3.31-4.695 116.231 116.231 0 0 1 15.401-16.988 120.21 120.21 0 0 1 4.352-3.75 116.23 116.23 0 0 1 9.223-6.836c1.593-1.066 3.21-2.09 4.851-3.07 1.645-.985 3.309-1.93 5-2.828a116.425 116.425 0 0 1 10.379-4.906 115.552 115.552 0 0 1 10.813-3.863 117.125 117.125 0 0 1 5.535-1.532 119.637 119.637 0 0 1 11.261-2.235 116.998 116.998 0 0 1 17.172-1.254l84.918.012-.02-15.011-84.917-.016a131.345 131.345 0 0 0-25.762 2.484 129.857 129.857 0 0 0-12.57 3.133 130.723 130.723 0 0 0-23.91 9.902 130.952 130.952 0 0 0-31.078 23.129zm-26.636-26.636a167.689 167.689 0 0 0-8.488 9.144 168.125 168.125 0 0 0-7.793 9.742 169.907 169.907 0 0 0-13.332 21.075 168.818 168.818 0 0 0-5.47 11.214 167.187 167.187 0 0 0-4.628 11.586 168.739 168.739 0 0 0-6.645 24.035 168.432 168.432 0 0 0-1.98 12.32 169.934 169.934 0 0 0-1.219 24.91 170.257 170.257 0 0 0 2.45 24.821 169.103 169.103 0 0 0 6.062 24.196 169.825 169.825 0 0 0 15.559 33.977 171.87 171.87 0 0 0 6.804 10.464 169.078 169.078 0 0 0 15.82 19.285 167.896 167.896 0 0 0 8.93 8.719 168.858 168.858 0 0 0 9.547 8.039 169.144 169.144 0 0 0 20.73 13.867 168.9 168.9 0 0 0 11.075 5.754 171.663 171.663 0 0 0 11.468 4.926 169.186 169.186 0 0 0 23.863 7.254c4.06.918 8.15 1.68 12.266 2.293 4.118.617 8.25 1.078 12.403 1.386 4.152.309 8.308.465 12.468.47l.11-14.915a153.566 153.566 0 0 1-7.461-.367 152.855 152.855 0 0 1-14.824-1.809 154.54 154.54 0 0 1-14.582-3.234 155.128 155.128 0 0 1-14.203-4.621 156.708 156.708 0 0 1-13.691-5.973 154.288 154.288 0 0 1-13.056-7.27 155.98 155.98 0 0 1-6.246-4.093 158.842 158.842 0 0 1-6.043-4.395 163.131 163.131 0 0 1-5.824-4.68 153.163 153.163 0 0 1-10.934-10.18 153.216 153.216 0 0 1-5.085-5.472 149.394 149.394 0 0 1-4.817-5.71 155.66 155.66 0 0 1-8.777-12.087 154.258 154.258 0 0 1-7.57-12.879 152.127 152.127 0 0 1-6.293-13.546 147.404 147.404 0 0 1-2.649-6.985 150.65 150.65 0 0 1-2.308-7.105 153.39 153.39 0 0 1-1.965-7.207 154.698 154.698 0 0 1-1.61-7.297 152.299 152.299 0 0 1-2.16-14.777 153.63 153.63 0 0 1-.723-14.918c0-2.493.06-4.98.18-7.47.121-2.487.3-4.972.54-7.448.241-2.48.538-4.953.898-7.418a156.583 156.583 0 0 1 2.867-14.657c.598-2.418 1.25-4.82 1.96-7.207.712-2.386 1.481-4.754 2.31-7.105a150.712 150.712 0 0 1 2.648-6.984c.937-2.305 1.93-4.59 2.98-6.848a152.058 152.058 0 0 1 3.309-6.695 151.73 151.73 0 0 1 3.629-6.528 153.339 153.339 0 0 1 12.715-18.43 156.195 156.195 0 0 1 4.812-5.71 156.524 156.524 0 0 1 5.086-5.47 156.304 156.304 0 0 1 10.934-10.176 152.421 152.421 0 0 1 5.824-4.675 154.448 154.448 0 0 1 46.07-24.195 152.14 152.14 0 0 1 7.16-2.137c2.403-.656 4.82-1.254 7.25-1.793a160.892 160.892 0 0 1 7.332-1.437 156.57 156.57 0 0 1 14.825-1.805c2.484-.18 4.972-.3 7.46-.363l84.864.015-.016-15.015-84.863-.012a168.863 168.863 0 0 0-16.629.777c-5.531.536-11.02 1.34-16.473 2.415a168.712 168.712 0 0 0-31.824 9.628 168.494 168.494 0 0 0-29.312 15.696 169.017 169.017 0 0 0-13.356 9.937 168.72 168.72 0 0 0-12.305 11.207zm-79.774-79.774a281.878 281.878 0 0 0-18.598 20.531 276.706 276.706 0 0 0-8.523 10.922 282.566 282.566 0 0 0-15.386 23.04 284.035 284.035 0 0 0-13.05 24.438 282.853 282.853 0 0 0-10.594 25.598 283.193 283.193 0 0 0-11.064 40.038 280.517 280.517 0 0 0-4.05 27.41 282.064 282.064 0 0 0 1.722 69.113 282.517 282.517 0 0 0 30.325 91.691c2.18 4.079 4.46 8.098 6.836 12.063a282.95 282.95 0 0 0 7.421 11.71c2.57 3.845 5.23 7.622 7.985 11.337a282.187 282.187 0 0 0 17.59 21.426 279.372 279.372 0 0 0 9.558 10.043 280.097 280.097 0 0 0 20.492 18.671A279.9 279.9 0 0 0 286.171 958a281.337 281.337 0 0 0 23.759 14.285 280.978 280.978 0 0 0 51.152 21.207 280.275 280.275 0 0 0 82.004 12.051l-.074-14.957c-4.375 0-8.746-.106-13.117-.324a266.112 266.112 0 0 1-26.11-2.574 267.659 267.659 0 0 1-50.844-12.743 268.299 268.299 0 0 1-24.242-10.047 264.985 264.985 0 0 1-11.719-5.902 267.02 267.02 0 0 1-33.238-21.047 271.99 271.99 0 0 1-10.344-8.074 269.477 269.477 0 0 1-19.445-17.625 266.33 266.33 0 0 1-9.047-9.504 265.792 265.792 0 0 1-16.648-20.285 267.673 267.673 0 0 1-14.582-21.816 266.882 266.882 0 0 1-12.371-23.141 269.06 269.06 0 0 1-5.32-11.996 263.898 263.898 0 0 1-4.723-12.246 262.615 262.615 0 0 1-4.117-12.461 263.429 263.429 0 0 1-3.504-12.645 271.62 271.62 0 0 1-2.88-12.804 268.468 268.468 0 0 1-4.82-39.04 267.278 267.278 0 0 1 37.7-150.566 268.99 268.99 0 0 1 14.574-21.816 271.024 271.024 0 0 1 8.07-10.344 272.512 272.512 0 0 1 8.57-9.934 266.33 266.33 0 0 1 28.489-27.12 261.295 261.295 0 0 1 10.344-8.071 263.452 263.452 0 0 1 21.813-14.574 266.883 266.883 0 0 1 35.132-17.684 270.015 270.015 0 0 1 12.242-4.723 268.626 268.626 0 0 1 25.11-7.613 264.638 264.638 0 0 1 12.804-2.87c4.29-.856 8.598-1.602 12.926-2.243a260.55 260.55 0 0 1 13.027-1.606 266.11 266.11 0 0 1 26.203-1.285l84.782-.043-.02-15.015-84.719-.012a280.049 280.049 0 0 0-55.117 5.309 278.832 278.832 0 0 0-26.894 6.703 279.9 279.9 0 0 0-51.156 21.184 279.531 279.531 0 0 0-23.759 14.269 279.884 279.884 0 0 0-42.73 35.21zm132.934 132.934a93.972 93.972 0 0 0-4.727 5.093 91.938 91.938 0 0 0-4.34 5.426 91.145 91.145 0 0 0-3.93 5.73 92.83 92.83 0 0 0-3.5 6.005 96.944 96.944 0 0 0-3.046 6.242 96.512 96.512 0 0 0-2.578 6.453 93.761 93.761 0 0 0-3.7 13.387 94.585 94.585 0 0 0-1.105 6.86c-.281 2.3-.48 4.608-.594 6.925a93.708 93.708 0 0 0-.082 6.95c.055 2.315.2 4.628.426 6.933.227 2.308.54 4.605.938 6.886.394 2.286.875 4.551 1.437 6.801a94.378 94.378 0 0 0 7.254 19.508 96.067 96.067 0 0 0 3.352 6.09 95.255 95.255 0 0 0 3.789 5.824 94.622 94.622 0 0 0 4.21 5.531 93.826 93.826 0 0 0 4.602 5.207 95.58 95.58 0 0 0 4.973 4.856 94.563 94.563 0 0 0 10.953 8.547 94.613 94.613 0 0 0 12.082 6.851 95.27 95.27 0 0 0 12.96 5.004 94.382 94.382 0 0 0 27.403 4.074l.012-15.011a80.86 80.86 0 0 1-7.785-.383 80.378 80.378 0 0 1-3.867-.48 75.825 75.825 0 0 1-3.84-.665 79.624 79.624 0 0 1-7.559-1.894 81.932 81.932 0 0 1-3.699-1.223 82.091 82.091 0 0 1-3.637-1.402c-1.199-.5-2.386-1.028-3.562-1.582a78.354 78.354 0 0 1-3.48-1.754 76.208 76.208 0 0 1-3.391-1.918 80.508 80.508 0 0 1-3.293-2.086 78.99 78.99 0 0 1-6.258-4.645 82.991 82.991 0 0 1-2.953-2.543 83.287 83.287 0 0 1-2.82-2.687 76.303 76.303 0 0 1-2.688-2.824 76.105 76.105 0 0 1-2.547-2.95 82.197 82.197 0 0 1-2.398-3.074 75.344 75.344 0 0 1-2.243-3.187 75.493 75.493 0 0 1-2.085-3.293 78.015 78.015 0 0 1-1.922-3.39 76.28 76.28 0 0 1-1.754-3.481 80.256 80.256 0 0 1-2.98-7.2 77.293 77.293 0 0 1-1.223-3.699 77.475 77.475 0 0 1-1.895-7.558 79.647 79.647 0 0 1-.668-3.84 75.7 75.7 0 0 1-.476-3.867 76.139 76.139 0 0 1-.29-3.887 86.377 86.377 0 0 1-.097-3.895 81.143 81.143 0 0 1 .383-7.785 80.357 80.357 0 0 1 1.14-7.703 78.72 78.72 0 0 1 .856-3.805 78.536 78.536 0 0 1 2.261-7.453 78.464 78.464 0 0 1 1.399-3.636c.5-1.2 1.023-2.387 1.582-3.563a76.212 76.212 0 0 1 1.75-3.48 80.4 80.4 0 0 1 4.004-6.684 77.916 77.916 0 0 1 2.246-3.184 76.163 76.163 0 0 1 4.941-6.023 79.472 79.472 0 0 1 8.457-8.055 81.94 81.94 0 0 1 6.258-4.64 84.871 84.871 0 0 1 3.293-2.082 78.015 78.015 0 0 1 6.871-3.672 76.422 76.422 0 0 1 3.563-1.578c1.199-.5 2.41-.965 3.633-1.403a77.44 77.44 0 0 1 3.703-1.222 77.286 77.286 0 0 1 3.754-1.04 80.496 80.496 0 0 1 7.64-1.52 80.359 80.359 0 0 1 3.867-.476 80.86 80.86 0 0 1 3.887-.285c1.3-.062 2.598-.093 3.899-.093l84.972.125-.043-15.016-84.949-.012a93.72 93.72 0 0 0-27.387 4.004 94.412 94.412 0 0 0-8.718 3.11 94 94 0 0 0-23.735 14.238 92.227 92.227 0 0 0-6.847 6.226zM269.87 550.008a238.836 238.836 0 0 0-6.254 6.484 250.836 250.836 0 0 0-6.015 6.715 250.626 250.626 0 0 0-5.762 6.93 249.319 249.319 0 0 0-5.504 7.136 247.39 247.39 0 0 0-10.2 14.86 245.09 245.09 0 0 0-9.077 15.57 234.901 234.901 0 0 0-4.102 8.027 245.595 245.595 0 0 0-7.309 16.473 252.104 252.104 0 0 0-3.191 8.43 240.993 240.993 0 0 0-2.879 8.543 235.811 235.811 0 0 0-2.566 8.64c-.801 2.895-1.551 5.805-2.242 8.73a242.047 242.047 0 0 0-1.922 8.806 254.159 254.159 0 0 0-1.598 8.87 245.215 245.215 0 0 0-2.203 17.891c-.258 2.992-.461 5.992-.61 8.992a247.6 247.6 0 0 0-.277 9.012 247.537 247.537 0 0 0 .445 18.02c.184 3 .422 5.996.72 8.984.292 2.992.644 5.977 1.05 8.953.402 2.98.863 5.95 1.375 8.91a252.57 252.57 0 0 0 1.707 8.852c.621 2.941 1.3 5.867 2.031 8.781.73 2.918 1.512 5.817 2.352 8.703a238.398 238.398 0 0 0 2.672 8.614 243.582 243.582 0 0 0 6.281 16.894 245.835 245.835 0 0 0 11.71 24.367c1.45 2.633 2.95 5.239 4.497 7.817a242.311 242.311 0 0 0 4.777 7.644 240.467 240.467 0 0 0 5.055 7.465 247.684 247.684 0 0 0 5.328 7.274c1.82 2.39 3.684 4.746 5.59 7.07a244.134 244.134 0 0 0 24.852 26.094 251.582 251.582 0 0 0 6.789 5.93c2.3 1.933 4.636 3.823 7.004 5.675a242.497 242.497 0 0 0 7.21 5.41 245.266 245.266 0 0 0 22.754 14.602 246.233 246.233 0 0 0 16.004 8.3 245.78 245.78 0 0 0 16.57 7.098 240.807 240.807 0 0 0 8.47 3.086c2.843.98 5.702 1.903 8.577 2.778a246.156 246.156 0 0 0 26.262 6.398c2.957.55 5.922 1.047 8.895 1.484 2.972.442 5.953.828 8.937 1.157 2.988.332 5.98.609 8.977.828 3 .218 6 .386 9 .496 3.004.11 6.008.164 9.015.164l-.003-15.028c-3.739-.035-7.473-.16-11.208-.375a232.431 232.431 0 0 1-11.175-.921 225.885 225.885 0 0 1-11.118-1.47 229.064 229.064 0 0 1-11.035-2.003c-3.66-.762-7.3-1.61-10.922-2.543a230.97 230.97 0 0 1-21.41-6.668 230.82 230.82 0 0 1-30.645-13.828 231.763 231.763 0 0 1-19.164-11.645 230.247 230.247 0 0 1-26.394-20.82 230.116 230.116 0 0 1-8.086-7.773 229.956 229.956 0 0 1-28.285-34.739 230.08 230.08 0 0 1-11.469-19.27 226.456 226.456 0 0 1-5.015-10.03 228.32 228.32 0 0 1-8.54-20.735 232.393 232.393 0 0 1-3.5-10.652 230.598 230.598 0 0 1-2.972-10.817 221.403 221.403 0 0 1-2.445-10.945 229.893 229.893 0 0 1-1.91-11.05 231.285 231.285 0 0 1-2.188-22.313 228.315 228.315 0 0 1-.273-11.211c0-3.738.09-7.477.273-11.211.18-3.734.453-7.465.816-11.184.364-3.722.82-7.433 1.364-11.132a230.547 230.547 0 0 1 7.32-32.805 230.782 230.782 0 0 1 3.496-10.652 232.214 232.214 0 0 1 4.016-10.473 228.258 228.258 0 0 1 4.52-10.262 228.4 228.4 0 0 1 10.511-19.8c1.91-3.212 3.898-6.376 5.965-9.493a230.277 230.277 0 0 1 13.289-18.054 236.646 236.646 0 0 1 7.289-8.52c2.5-2.781 5.066-5.5 7.7-8.152a226.393 226.393 0 0 1 16.538-15.133 228.315 228.315 0 0 1 17.938-13.45 224.838 224.838 0 0 1 9.437-6.05 228.276 228.276 0 0 1 19.707-10.688 228.3 228.3 0 0 1 10.223-4.61 230.817 230.817 0 0 1 21.055-7.7 230.423 230.423 0 0 1 32.742-7.608 230.66 230.66 0 0 1 22.293-2.379c3.734-.214 7.469-.34 11.207-.37l84.765.027-.03-15.028-84.75-.015c-8.02-.02-16.02.351-24.005 1.12-7.98.77-15.906 1.93-23.773 3.485a241.649 241.649 0 0 0-23.313 5.813 241.597 241.597 0 0 0-22.625 8.086 242.202 242.202 0 0 0-21.718 10.277 242.83 242.83 0 0 0-39.867 26.719 241.699 241.699 0 0 0-17.762 16.176zM123.066 723.113c0 5.239.13 10.473.387 15.703a320.944 320.944 0 0 0 3.078 31.25 324.29 324.29 0 0 0 2.688 15.477 322.472 322.472 0 0 0 7.633 30.46 321.125 321.125 0 0 0 10.582 29.566 320.055 320.055 0 0 0 13.43 28.392 322.17 322.17 0 0 0 7.741 13.668 323.025 323.025 0 0 0 8.407 13.27 322.781 322.781 0 0 0 9.043 12.84 319.882 319.882 0 0 0 19.926 24.277 319.937 319.937 0 0 0 22.207 22.207 322.571 322.571 0 0 0 11.894 10.261 320.979 320.979 0 0 0 25.227 18.711 319.76 319.76 0 0 0 26.938 16.145 318.035 318.035 0 0 0 14.026 7.062 321.331 321.331 0 0 0 29.016 12.023 321.644 321.644 0 0 0 30.05 9.118 315.602 315.602 0 0 0 15.325 3.441 321.405 321.405 0 0 0 31.063 4.613 318.881 318.881 0 0 0 31.363 1.543l-.016-15.015c-4.992 0-9.976-.121-14.965-.367-4.984-.246-9.96-.613-14.925-1.102a301.112 301.112 0 0 1-14.856-1.836 303.756 303.756 0 0 1-29.355-5.84 303.231 303.231 0 0 1-28.637-8.69 302.092 302.092 0 0 1-13.969-5.388 307.21 307.21 0 0 1-13.683-6.066 305.533 305.533 0 0 1-26.395-14.113 303.758 303.758 0 0 1-24.887-16.63 298.722 298.722 0 0 1-11.8-9.21 303.859 303.859 0 0 1-22.18-20.102 303.91 303.91 0 0 1-20.102-22.176 312.417 312.417 0 0 1-9.21-11.8 306.446 306.446 0 0 1-16.629-24.887 305.268 305.268 0 0 1-14.11-26.395 300.978 300.978 0 0 1-6.066-13.687 302.003 302.003 0 0 1-5.39-13.965 307.031 307.031 0 0 1-8.692-28.64 310.42 310.42 0 0 1-3.282-14.606 308.426 308.426 0 0 1-2.558-14.746 301.677 301.677 0 0 1-1.832-14.856 303.02 303.02 0 0 1-1.473-29.894c0-4.988.121-9.977.363-14.961.246-4.988.61-9.961 1.098-14.93a306.474 306.474 0 0 1 4.387-29.605 305.393 305.393 0 0 1 11.96-43.242 302.765 302.765 0 0 1 11.45-27.648 303.072 303.072 0 0 1 6.726-13.368 302.807 302.807 0 0 1 7.375-13.023 306.36 306.36 0 0 1 8.008-12.649 302.2 302.2 0 0 1 8.618-12.234 304.476 304.476 0 0 1 40.14-44.293 304.476 304.476 0 0 1 23.133-18.98 302.199 302.199 0 0 1 12.234-8.618 306.362 306.362 0 0 1 25.668-15.383 307.211 307.211 0 0 1 27.055-12.793 306.404 306.404 0 0 1 13.965-5.382c4.699-1.68 9.437-3.247 14.215-4.692a300.687 300.687 0 0 1 14.425-3.992 303.73 303.73 0 0 1 29.352-5.832 305.855 305.855 0 0 1 44.746-3.293l84.668.012-.016-15.012-84.668-.012c-5.234 0-10.468.125-15.699.383-5.23.258-10.449.64-15.66 1.152a326.329 326.329 0 0 0-15.586 1.922 320.249 320.249 0 0 0-30.797 6.121 321.143 321.143 0 0 0-30.047 9.114 316.417 316.417 0 0 0-14.648 5.648 317.887 317.887 0 0 0-14.356 6.363 317.964 317.964 0 0 0-14.027 7.059 320.093 320.093 0 0 0-26.93 16.137 320.755 320.755 0 0 0-37.11 28.957 319.822 319.822 0 0 0-11.37 10.828 319.823 319.823 0 0 0-10.828 11.37 320.754 320.754 0 0 0-28.957 37.11 320.094 320.094 0 0 0-29.559 55.313 314.861 314.861 0 0 0-5.648 14.652 316.898 316.898 0 0 0-4.926 14.91 321.146 321.146 0 0 0-4.187 15.133 321.32 321.32 0 0 0-6.122 30.797 321.385 321.385 0 0 0-1.921 15.586 318.877 318.877 0 0 0-1.535 31.36zm0 0"/>
        </clipPath>
        <clipPath id="f">
            <path d="M744 401h342v243H744zm0 0"/>
        </clipPath>
        <clipPath id="g">
            <path d="M872.082 770.727 623.887 522.53l234.406-234.406 248.195 248.195zm0 0"/>
        </clipPath>
        <clipPath id="h">
            <path d="M872.082 770.727 623.887 522.53l234.406-234.406 248.195 248.195zm0 0"/>
        </clipPath>
        <clipPath id="i">
            <path d="m926.527 552.96-181.648.08.02 15.089 181.636-.094zM744.766 417.134l127.492-.055.008-15.09-127.504.07zm.097 37.691 215.348-.09.004-15.09-215.371.094zm.094 173.715.008 15.074 243.582-.105.062-15.031zm-.074-22.605 291.746-.153-.008-15.074-291.703.082zm-.106-113.262 280.203-.176.008-15.058-280.164.105zm.098 37.695 340.414-.148.02-15.074-340.442.148zm0 0"/>
        </clipPath>
        <clipPath id="k">
            <path d="M441 43h321v1001H441zm0 0"/>
        </clipPath>
        <clipPath id="l">
            <path d="M507.762 1109.559-18.855 582.94 520.488 43.594l526.617 526.617zm0 0"/>
        </clipPath>
        <clipPath id="m">
            <path d="M507.762 1109.559-18.855 582.94 520.488 43.594l526.617 526.617zm0 0"/>
        </clipPath>
        <clipPath id="n">
            <path d="m441.34 840.29-.004 15.015a132.15 132.15 0 0 0 56.363-12.715c1.95-.926 3.875-1.899 5.778-2.914a128.697 128.697 0 0 0 5.628-3.196 130.198 130.198 0 0 0 5.47-3.46 138.536 138.536 0 0 0 5.288-3.73 132.28 132.28 0 0 0 5.102-3.981c1.668-1.371 3.3-2.782 4.898-4.23a129.71 129.71 0 0 0 4.688-4.462 132.978 132.978 0 0 0 4.465-4.687c1.449-1.598 2.859-3.235 4.226-4.903 1.371-1.668 2.7-3.367 3.985-5.097a134.323 134.323 0 0 0 7.191-10.758 130.945 130.945 0 0 0 3.191-5.629 129.025 129.025 0 0 0 2.914-5.781 130.889 130.889 0 0 0 6.997-18.094 132.692 132.692 0 0 0 4.27-18.922c.315-2.137.585-4.277.796-6.422a132.377 132.377 0 0 0 .652-12.922l.07-626.988-15.011-15.012-.07 642a116.555 116.555 0 0 1-.578 11.453 112.04 112.04 0 0 1-.708 5.692 115.315 115.315 0 0 1-2.246 11.242c-.465 1.856-.976 3.7-1.535 5.527a116.805 116.805 0 0 1-1.8 5.446 119.91 119.91 0 0 1-4.395 10.59c-.82 1.73-1.68 3.437-2.582 5.12a117.818 117.818 0 0 1-5.898 9.836 115.982 115.982 0 0 1-6.836 9.207 116.719 116.719 0 0 1-11.855 12.453 116.01 116.01 0 0 1-8.863 7.273 117.682 117.682 0 0 1-9.531 6.375 118.442 118.442 0 0 1-10.11 5.411c-1.731.82-3.478 1.594-5.243 2.328a118.184 118.184 0 0 1-10.797 3.872 116.661 116.661 0 0 1-5.523 1.53 114.49 114.49 0 0 1-5.594 1.263c-1.88.375-3.762.703-5.653.988a116.544 116.544 0 0 1-11.41 1.133c-1.91.097-3.82.144-5.73.148zm79.265-116.83c0 1.302-.035 2.599-.097 3.892a80.725 80.725 0 0 1-.774 7.746 80.179 80.179 0 0 1-1.523 7.629 78.429 78.429 0 0 1-1.043 3.75 81.777 81.777 0 0 1-1.223 3.695 81.789 81.789 0 0 1-1.402 3.629 80.179 80.179 0 0 1-3.332 7.031 80.26 80.26 0 0 1-4.004 6.672 78.971 78.971 0 0 1-7.18 9.2 79.359 79.359 0 0 1-5.504 5.5 79.42 79.42 0 0 1-6.011 4.937 75.22 75.22 0 0 1-3.184 2.242 77.656 77.656 0 0 1-3.285 2.086 80.364 80.364 0 0 1-6.863 3.672 82.564 82.564 0 0 1-3.555 1.578 80.113 80.113 0 0 1-11.074 3.668 78.412 78.412 0 0 1-7.633 1.523 80.059 80.059 0 0 1-11.633.875v15.012a96.05 96.05 0 0 0 4.625-.121 94.966 94.966 0 0 0 9.207-.918c1.528-.23 3.047-.496 4.563-.797a99.028 99.028 0 0 0 4.511-1.02 93.115 93.115 0 0 0 8.856-2.695c1.45-.52 2.89-1.078 4.316-1.668a99.506 99.506 0 0 0 4.23-1.879 97.314 97.314 0 0 0 4.134-2.082c1.359-.73 2.699-1.492 4.023-2.285a94.231 94.231 0 0 0 3.91-2.477 98.276 98.276 0 0 0 3.781-2.668 88.697 88.697 0 0 0 3.649-2.847 92.579 92.579 0 0 0 3.504-3.024 99.578 99.578 0 0 0 3.355-3.191c1.09-1.094 2.153-2.21 3.192-3.352a95.869 95.869 0 0 0 5.87-7.152 101.56 101.56 0 0 0 2.669-3.785 94.232 94.232 0 0 0 4.758-7.934 92.971 92.971 0 0 0 3.964-8.363 94.627 94.627 0 0 0 7.098-31.453 96.05 96.05 0 0 0 .121-4.625l.102-664.633-14.985-14.98zm29.934 109.157a154.055 154.055 0 0 1-11.21 10.207 152.68 152.68 0 0 1-12.165 9.055 154.035 154.035 0 0 1-12.996 7.808 152.858 152.858 0 0 1-13.703 6.485 152.873 152.873 0 0 1-28.988 8.773 153.084 153.084 0 0 1-30.14 2.906l-.005 15.012a168.684 168.684 0 0 0 16.61-.816c2.761-.274 5.511-.613 8.253-1.024a169.135 169.135 0 0 0 24.328-5.465 171.317 171.317 0 0 0 7.899-2.609 170.917 170.917 0 0 0 15.363-6.367 169.314 169.314 0 0 0 14.668-7.844 172.985 172.985 0 0 0 7.027-4.449 174.525 174.525 0 0 0 6.801-4.789 165.834 165.834 0 0 0 6.555-5.121 166.574 166.574 0 0 0 6.3-5.434 170.444 170.444 0 0 0 11.762-11.758 170.106 170.106 0 0 0 5.43-6.3 168.749 168.749 0 0 0 5.121-6.555 168.808 168.808 0 0 0 9.238-13.828 169.314 169.314 0 0 0 20.863-54.063c.544-2.718 1.016-5.449 1.427-8.195.406-2.742.746-5.492 1.02-8.254.269-2.762.476-5.523.612-8.293.137-2.773.203-5.543.207-8.316l.051-589.41-15.012-15.012-.07 604.437a153.164 153.164 0 0 1-2.906 30.149 153.577 153.577 0 0 1-32.129 67.86 154.926 154.926 0 0 1-10.21 11.21zm106.23 106.23a306.902 306.902 0 0 1-10.808 10.344 305.838 305.838 0 0 1-11.309 9.797 308.084 308.084 0 0 1-11.777 9.227 306.002 306.002 0 0 1-12.219 8.633 303.476 303.476 0 0 1-25.64 15.402 298.84 298.84 0 0 1-13.364 6.734 303.317 303.317 0 0 1-41.84 16.137 302.906 302.906 0 0 1-29.023 7.238 299.405 299.405 0 0 1-14.742 2.536 296.734 296.734 0 0 1-14.852 1.804c-4.965.48-9.941.836-14.922 1.07-4.984.235-9.968.344-14.957.329l-.015 15c5.234 0 10.46-.13 15.687-.383a322.329 322.329 0 0 0 15.649-1.156 325.846 325.846 0 0 0 15.574-1.922 319.818 319.818 0 0 0 30.773-6.125 317.418 317.418 0 0 0 30.024-9.11 316.27 316.27 0 0 0 14.644-5.648c4.832-2 9.614-4.121 14.344-6.36 4.73-2.238 9.402-4.59 14.02-7.054a321.534 321.534 0 0 0 26.91-16.133 318.344 318.344 0 0 0 25.203-18.691 319.21 319.21 0 0 0 23.25-21.075 319.372 319.372 0 0 0 30.726-35.62 322.295 322.295 0 0 0 9.04-12.829 322.363 322.363 0 0 0 8.394-13.258 317.37 317.37 0 0 0 7.734-13.656 317.54 317.54 0 0 0 13.418-28.363 317.844 317.844 0 0 0 5.649-14.64 321.14 321.14 0 0 0 9.11-30.028 314.955 314.955 0 0 0 3.437-15.309 314.097 314.097 0 0 0 2.683-15.46 316.12 316.12 0 0 0 1.922-15.575c.516-5.207.899-10.426 1.156-15.648.258-5.227.387-10.457.387-15.688l.05-439.176-15-15-.05 454.192a303.181 303.181 0 0 1-5.742 59.476 306.165 306.165 0 0 1-3.262 14.598 306.493 306.493 0 0 1-3.98 14.426 303.526 303.526 0 0 1-10.07 28.168 304.932 304.932 0 0 1-6.067 13.676 305.106 305.106 0 0 1-6.734 13.359 303.477 303.477 0 0 1-15.406 25.645 299.411 299.411 0 0 1-8.637 12.218 297.694 297.694 0 0 1-9.227 11.781 303.646 303.646 0 0 1-20.14 22.117zm-26.605-26.605a264.9 264.9 0 0 1-19.379 17.66 264.068 264.068 0 0 1-21.02 15.664 264.324 264.324 0 0 1-22.468 13.516 265.05 265.05 0 0 1-48.367 20.074 264.776 264.776 0 0 1-25.434 6.367 265.21 265.21 0 0 1-52.117 5.07l-.016 15a282.144 282.144 0 0 0 68.555-8.456 282.94 282.94 0 0 0 26.5-8.04 282.405 282.405 0 0 0 73.027-39.034 283.296 283.296 0 0 0 21.403-17.567 282.294 282.294 0 0 0 59.363-76.062 285.977 285.977 0 0 0 6.226-12.371 287.873 287.873 0 0 0 5.614-12.66 282.789 282.789 0 0 0 9.328-26.07 283.649 283.649 0 0 0 6.726-26.864 277.29 277.29 0 0 0 2.368-13.645c.68-4.566 1.246-9.148 1.695-13.742a281.601 281.601 0 0 0 1.36-27.656l.054-476.739-15.055-15.054V723.44a265.36 265.36 0 0 1-11.414 77.57 265.99 265.99 0 0 1-8.836 24.692 266.762 266.762 0 0 1-11.23 23.695 266.656 266.656 0 0 1-13.516 22.473 264.905 264.905 0 0 1-15.664 21.027 264.21 264.21 0 0 1-17.664 19.383zm-26.61-26.61a227.836 227.836 0 0 1-34.761 28.626 228.298 228.298 0 0 1-39.71 21.234 227.82 227.82 0 0 1-21.231 7.574 227.534 227.534 0 0 1-21.872 5.446 228.43 228.43 0 0 1-22.304 3.258 229.335 229.335 0 0 1-22.52 1.039l.153 15.168a246.061 246.061 0 0 0 23.972-1.18 249.29 249.29 0 0 0 11.918-1.469c3.957-.59 7.903-1.273 11.828-2.055a244.819 244.819 0 0 0 11.711-2.628 246.045 246.045 0 0 0 22.969-6.97c3.77-1.35 7.504-2.788 11.203-4.32a245.575 245.575 0 0 0 32.145-16.184c3.433-2.058 6.816-4.198 10.144-6.421a248.926 248.926 0 0 0 9.813-6.914 243.936 243.936 0 0 0 18.558-15.23 244.824 244.824 0 0 0 16.973-16.973c2.687-2.965 5.3-5.996 7.844-9.09 2.539-3.094 5-6.25 7.383-9.465a241.081 241.081 0 0 0 6.914-9.816 242.394 242.394 0 0 0 6.425-10.145 247.317 247.317 0 0 0 5.918-10.445 243.287 243.287 0 0 0 10.262-21.7 242.605 242.605 0 0 0 4.32-11.199 240.06 240.06 0 0 0 3.766-11.398 245.01 245.01 0 0 0 5.836-23.285 242.101 242.101 0 0 0 2.05-11.828c.59-3.961 1.079-7.93 1.473-11.914.391-3.985.684-7.977.883-11.973.196-3.996.293-8 .293-12l.074-514.285-15.011-15.012-.063 529.395c.02 7.52-.336 15.02-1.062 22.504a226.994 226.994 0 0 1-3.278 22.289 227.957 227.957 0 0 1-22.691 63.426 227.87 227.87 0 0 1-25.055 37.382 226.802 226.802 0 0 1-15.172 16.656zm-162.226 29.782v15.012c3.387-.004 6.77-.094 10.152-.262 3.38-.172 6.754-.426 10.125-.762a207.983 207.983 0 0 0 29.985-5.242 207.22 207.22 0 0 0 19.422-5.914 204.991 204.991 0 0 0 18.75-7.785 207.088 207.088 0 0 0 26.476-15.016 204.668 204.668 0 0 0 8.301-5.851 209.497 209.497 0 0 0 15.695-12.883 207.294 207.294 0 0 0 7.352-7.004 206.927 206.927 0 0 0 19.887-23.047 204.668 204.668 0 0 0 5.851-8.3 206.791 206.791 0 0 0 10.445-17.41 204.925 204.925 0 0 0 8.695-18.348 210.545 210.545 0 0 0 3.665-9.47 209.264 209.264 0 0 0 5.91-19.425 204.8 204.8 0 0 0 3.984-19.906c.504-3.348.922-6.707 1.258-10.078.336-3.368.59-6.743.762-10.125.172-3.38.258-6.762.262-10.149l.062-551.804-15.012-15.012-.007 566.762c0 3.14-.082 6.28-.239 9.418a189.33 189.33 0 0 1-.699 9.398 187.847 187.847 0 0 1-1.16 9.348 191.31 191.31 0 0 1-3.684 18.476 191.501 191.501 0 0 1-2.52 9.078 191.516 191.516 0 0 1-6.355 17.738 192.34 192.34 0 0 1-8.058 17.028 194.662 194.662 0 0 1-4.649 8.2 193.635 193.635 0 0 1-10.468 15.66 193.42 193.42 0 0 1-5.801 7.429 187.287 187.287 0 0 1-6.156 7.133 187.946 187.946 0 0 1-6.496 6.824 191.326 191.326 0 0 1-21.387 18.453 192.273 192.273 0 0 1-15.664 10.469 190.274 190.274 0 0 1-16.614 8.887 191.516 191.516 0 0 1-17.402 7.219 193.25 193.25 0 0 1-8.945 2.96c-3.008.91-6.031 1.75-9.078 2.516-3.051.766-6.114 1.457-9.196 2.07a196.054 196.054 0 0 1-9.28 1.617c-3.11.461-6.224.848-9.352 1.16-3.125.31-6.258.544-9.395.7-3.14.156-6.277.234-9.422.238zm0 0"/>
        </clipPath>
        <linearGradient x1="-4011.214" gradientTransform="matrix(1.98237 .0003 .0003 1.98237 8075.378 -6449.905)" y1="3456.813" x2="-3759.26" gradientUnits="userSpaceOnUse" y2="3736.761" id="e">
            <stop stop-color="#0562CF" offset="0"/>
            <stop stop-color="#0562CF" offset=".25"/>
            <stop stop-color="#0562CF" offset=".363"/>
            <stop stop-color="#0562CF" offset=".375"/>
            <stop stop-color="#0562CF" offset=".438"/>
            <stop stop-color="#0562CF" offset=".469"/>
            <stop stop-color="#0A61CD" offset=".473"/>
            <stop stop-color="#0F61CB" offset=".477"/>
            <stop stop-color="#1361C9" offset=".48"/>
            <stop stop-color="#1760C7" offset=".484"/>
            <stop stop-color="#1C60C5" offset=".488"/>
            <stop stop-color="#205FC3" offset=".492"/>
            <stop stop-color="#245FC1" offset=".496"/>
            <stop stop-color="#295FBF" offset=".5"/>
            <stop stop-color="#2D5EBD" offset=".504"/>
            <stop stop-color="#315EBB" offset=".508"/>
            <stop stop-color="#365DB9" offset=".512"/>
            <stop stop-color="#3A5DB7" offset=".516"/>
            <stop stop-color="#3E5CB5" offset=".52"/>
            <stop stop-color="#435CB4" offset=".523"/>
            <stop stop-color="#475CB2" offset=".527"/>
            <stop stop-color="#4B5BB0" offset=".531"/>
            <stop stop-color="#505BAE" offset=".535"/>
            <stop stop-color="#545AAC" offset=".539"/>
            <stop stop-color="#595AAA" offset=".543"/>
            <stop stop-color="#5D5AA8" offset=".547"/>
            <stop stop-color="#6159A6" offset=".551"/>
            <stop stop-color="#6659A4" offset=".555"/>
            <stop stop-color="#6A58A2" offset=".559"/>
            <stop stop-color="#6E58A0" offset=".563"/>
            <stop stop-color="#73579E" offset=".566"/>
            <stop stop-color="#77579C" offset=".57"/>
            <stop stop-color="#7B579A" offset=".574"/>
            <stop stop-color="#805698" offset=".578"/>
            <stop stop-color="#845696" offset=".582"/>
            <stop stop-color="#885594" offset=".586"/>
            <stop stop-color="#8D5593" offset=".59"/>
            <stop stop-color="#915591" offset=".594"/>
            <stop stop-color="#95548F" offset=".598"/>
            <stop stop-color="#9A548D" offset=".602"/>
            <stop stop-color="#9E538B" offset=".605"/>
            <stop stop-color="#A35389" offset=".609"/>
            <stop stop-color="#A75287" offset=".613"/>
            <stop stop-color="#AB5285" offset=".617"/>
            <stop stop-color="#B05283" offset=".621"/>
            <stop stop-color="#B45181" offset=".625"/>
            <stop stop-color="#B8517F" offset=".629"/>
            <stop stop-color="#BD507D" offset=".633"/>
            <stop stop-color="#C1507B" offset=".637"/>
            <stop stop-color="#C55079" offset=".641"/>
            <stop stop-color="#CA4F77" offset=".645"/>
            <stop stop-color="#CE4F75" offset=".648"/>
            <stop stop-color="#D24E73" offset=".652"/>
            <stop stop-color="#D74E71" offset=".656"/>
            <stop stop-color="#DB4D70" offset=".66"/>
            <stop stop-color="#DF4D6E" offset=".664"/>
            <stop stop-color="#E44D6C" offset=".668"/>
            <stop stop-color="#E84C6A" offset=".672"/>
            <stop stop-color="#EC4C68" offset=".676"/>
            <stop stop-color="#F14B66" offset=".68"/>
            <stop stop-color="#F34B65" offset=".684"/>
            <stop stop-color="#F54B64" offset=".688"/>
            <stop stop-color="#F54B64" offset=".75"/>
            <stop stop-color="#F54B64" offset="1"/>
        </linearGradient>
        <linearGradient x1="-3630.181" gradientTransform="matrix(1.9905 -.00086 -.00086 1.9905 7973.312 -5880.754)" y1="3215.53" x2="-3459.04" gradientUnits="userSpaceOnUse" y2="3215.53" id="j">
            <stop stop-color="#0562CF" offset="0"/>
            <stop stop-color="#0662CF" offset=".004"/>
            <stop stop-color="#0763CF" offset=".008"/>
            <stop stop-color="#0863CF" offset=".012"/>
            <stop stop-color="#0964CF" offset=".016"/>
            <stop stop-color="#0A64CF" offset=".02"/>
            <stop stop-color="#0A65CF" offset=".023"/>
            <stop stop-color="#0B66CF" offset=".027"/>
            <stop stop-color="#0C66D0" offset=".031"/>
            <stop stop-color="#0D67D0" offset=".035"/>
            <stop stop-color="#0E67D0" offset=".039"/>
            <stop stop-color="#0F68D0" offset=".043"/>
            <stop stop-color="#1068D0" offset=".047"/>
            <stop stop-color="#1169D0" offset=".051"/>
            <stop stop-color="#1269D0" offset=".055"/>
            <stop stop-color="#126AD0" offset=".059"/>
            <stop stop-color="#136AD0" offset=".063"/>
            <stop stop-color="#146BD0" offset=".066"/>
            <stop stop-color="#156BD0" offset=".07"/>
            <stop stop-color="#166CD0" offset=".074"/>
            <stop stop-color="#176CD0" offset=".078"/>
            <stop stop-color="#186DD0" offset=".082"/>
            <stop stop-color="#196DD0" offset=".086"/>
            <stop stop-color="#196ED0" offset=".09"/>
            <stop stop-color="#1A6ED0" offset=".094"/>
            <stop stop-color="#1B6FD1" offset=".098"/>
            <stop stop-color="#1C6FD1" offset=".102"/>
            <stop stop-color="#1D70D1" offset=".105"/>
            <stop stop-color="#1E70D1" offset=".109"/>
            <stop stop-color="#1F71D1" offset=".113"/>
            <stop stop-color="#2071D1" offset=".117"/>
            <stop stop-color="#2172D1" offset=".121"/>
            <stop stop-color="#2172D1" offset=".125"/>
            <stop stop-color="#2273D1" offset=".129"/>
            <stop stop-color="#2373D1" offset=".133"/>
            <stop stop-color="#2474D1" offset=".137"/>
            <stop stop-color="#2574D1" offset=".141"/>
            <stop stop-color="#2675D1" offset=".145"/>
            <stop stop-color="#2775D1" offset=".148"/>
            <stop stop-color="#2876D1" offset=".152"/>
            <stop stop-color="#2976D1" offset=".156"/>
            <stop stop-color="#2977D1" offset=".16"/>
            <stop stop-color="#2A77D2" offset=".164"/>
            <stop stop-color="#2B78D2" offset=".168"/>
            <stop stop-color="#2C78D2" offset=".172"/>
            <stop stop-color="#2D79D2" offset=".176"/>
            <stop stop-color="#2E79D2" offset=".18"/>
            <stop stop-color="#2F7AD2" offset=".184"/>
            <stop stop-color="#307BD2" offset=".188"/>
            <stop stop-color="#317BD2" offset=".191"/>
            <stop stop-color="#317CD2" offset=".195"/>
            <stop stop-color="#327CD2" offset=".199"/>
            <stop stop-color="#337DD2" offset=".203"/>
            <stop stop-color="#347DD2" offset=".207"/>
            <stop stop-color="#357ED2" offset=".211"/>
            <stop stop-color="#367ED2" offset=".215"/>
            <stop stop-color="#377FD2" offset=".219"/>
            <stop stop-color="#387FD2" offset=".223"/>
            <stop stop-color="#3980D2" offset=".227"/>
            <stop stop-color="#3980D3" offset=".23"/>
            <stop stop-color="#3A81D3" offset=".234"/>
            <stop stop-color="#3B81D3" offset=".238"/>
            <stop stop-color="#3C82D3" offset=".242"/>
            <stop stop-color="#3D82D3" offset=".246"/>
            <stop stop-color="#3E83D3" offset=".25"/>
            <stop stop-color="#3F83D3" offset=".254"/>
            <stop stop-color="#4084D3" offset=".258"/>
            <stop stop-color="#4184D3" offset=".262"/>
            <stop stop-color="#4185D3" offset=".266"/>
            <stop stop-color="#4285D3" offset=".27"/>
            <stop stop-color="#4386D3" offset=".273"/>
            <stop stop-color="#4486D3" offset=".277"/>
            <stop stop-color="#4587D3" offset=".281"/>
            <stop stop-color="#4687D3" offset=".285"/>
            <stop stop-color="#4788D3" offset=".289"/>
            <stop stop-color="#4888D3" offset=".293"/>
            <stop stop-color="#4889D4" offset=".297"/>
            <stop stop-color="#4989D4" offset=".301"/>
            <stop stop-color="#4A8AD4" offset=".305"/>
            <stop stop-color="#4B8AD4" offset=".309"/>
            <stop stop-color="#4C8BD4" offset=".313"/>
            <stop stop-color="#4D8BD4" offset=".316"/>
            <stop stop-color="#4E8CD4" offset=".32"/>
            <stop stop-color="#4F8CD4" offset=".324"/>
            <stop stop-color="#508DD4" offset=".328"/>
            <stop stop-color="#508DD4" offset=".332"/>
            <stop stop-color="#518ED4" offset=".336"/>
            <stop stop-color="#528ED4" offset=".34"/>
            <stop stop-color="#538FD4" offset=".344"/>
            <stop stop-color="#548FD4" offset=".348"/>
            <stop stop-color="#5590D4" offset=".352"/>
            <stop stop-color="#5691D4" offset=".355"/>
            <stop stop-color="#5791D4" offset=".359"/>
            <stop stop-color="#5892D5" offset=".363"/>
            <stop stop-color="#5892D5" offset=".367"/>
            <stop stop-color="#5993D5" offset=".371"/>
            <stop stop-color="#5A93D5" offset=".375"/>
            <stop stop-color="#5B94D5" offset=".379"/>
            <stop stop-color="#5C94D5" offset=".383"/>
            <stop stop-color="#5D95D5" offset=".387"/>
            <stop stop-color="#5E95D5" offset=".391"/>
            <stop stop-color="#5F96D5" offset=".395"/>
            <stop stop-color="#6096D5" offset=".398"/>
            <stop stop-color="#6097D5" offset=".402"/>
            <stop stop-color="#6197D5" offset=".406"/>
            <stop stop-color="#6298D5" offset=".41"/>
            <stop stop-color="#6398D5" offset=".414"/>
            <stop stop-color="#6499D5" offset=".418"/>
            <stop stop-color="#6599D5" offset=".422"/>
            <stop stop-color="#669AD5" offset=".426"/>
            <stop stop-color="#679AD6" offset=".43"/>
            <stop stop-color="#689BD6" offset=".434"/>
            <stop stop-color="#689BD6" offset=".438"/>
            <stop stop-color="#699CD6" offset=".441"/>
            <stop stop-color="#6A9CD6" offset=".445"/>
            <stop stop-color="#6B9DD6" offset=".449"/>
            <stop stop-color="#6C9DD6" offset=".453"/>
            <stop stop-color="#6D9ED6" offset=".457"/>
            <stop stop-color="#6E9ED6" offset=".461"/>
            <stop stop-color="#6F9FD6" offset=".465"/>
            <stop stop-color="#709FD6" offset=".469"/>
            <stop stop-color="#70A0D6" offset=".473"/>
            <stop stop-color="#71A0D6" offset=".477"/>
            <stop stop-color="#72A1D6" offset=".48"/>
            <stop stop-color="#73A1D6" offset=".484"/>
            <stop stop-color="#74A2D6" offset=".488"/>
            <stop stop-color="#75A2D6" offset=".492"/>
            <stop stop-color="#76A3D7" offset=".496"/>
            <stop stop-color="#77A3D7" offset=".5"/>
            <stop stop-color="#77A4D7" offset=".504"/>
            <stop stop-color="#78A4D7" offset=".508"/>
            <stop stop-color="#79A5D7" offset=".512"/>
            <stop stop-color="#7AA6D7" offset=".516"/>
            <stop stop-color="#7BA6D7" offset=".52"/>
            <stop stop-color="#7CA7D7" offset=".523"/>
            <stop stop-color="#7DA7D7" offset=".527"/>
            <stop stop-color="#7EA8D7" offset=".531"/>
            <stop stop-color="#7FA8D7" offset=".535"/>
            <stop stop-color="#7FA9D7" offset=".539"/>
            <stop stop-color="#80A9D7" offset=".543"/>
            <stop stop-color="#81AAD7" offset=".547"/>
            <stop stop-color="#82AAD7" offset=".551"/>
            <stop stop-color="#83ABD7" offset=".555"/>
            <stop stop-color="#84ABD7" offset=".559"/>
            <stop stop-color="#85ACD8" offset=".563"/>
            <stop stop-color="#86ACD8" offset=".566"/>
            <stop stop-color="#87ADD8" offset=".57"/>
            <stop stop-color="#87ADD8" offset=".574"/>
            <stop stop-color="#88AED8" offset=".578"/>
            <stop stop-color="#89AED8" offset=".582"/>
            <stop stop-color="#8AAFD8" offset=".586"/>
            <stop stop-color="#8BAFD8" offset=".59"/>
            <stop stop-color="#8CB0D8" offset=".594"/>
            <stop stop-color="#8DB0D8" offset=".598"/>
            <stop stop-color="#8EB1D8" offset=".602"/>
            <stop stop-color="#8FB1D8" offset=".605"/>
            <stop stop-color="#8FB2D8" offset=".609"/>
            <stop stop-color="#90B2D8" offset=".613"/>
            <stop stop-color="#91B3D8" offset=".617"/>
            <stop stop-color="#92B3D8" offset=".621"/>
            <stop stop-color="#93B4D8" offset=".625"/>
            <stop stop-color="#94B4D9" offset=".629"/>
            <stop stop-color="#95B5D9" offset=".633"/>
            <stop stop-color="#96B5D9" offset=".637"/>
            <stop stop-color="#97B6D9" offset=".641"/>
            <stop stop-color="#97B6D9" offset=".645"/>
            <stop stop-color="#98B7D9" offset=".648"/>
            <stop stop-color="#99B7D9" offset=".652"/>
            <stop stop-color="#9AB8D9" offset=".656"/>
            <stop stop-color="#9BB8D9" offset=".66"/>
            <stop stop-color="#9CB9D9" offset=".664"/>
            <stop stop-color="#9DB9D9" offset=".668"/>
            <stop stop-color="#9EBAD9" offset=".672"/>
            <stop stop-color="#9EBBD9" offset=".676"/>
            <stop stop-color="#9FBBD9" offset=".68"/>
            <stop stop-color="#A0BCD9" offset=".684"/>
            <stop stop-color="#A1BCD9" offset=".688"/>
            <stop stop-color="#A2BDD9" offset=".691"/>
            <stop stop-color="#A3BDDA" offset=".695"/>
            <stop stop-color="#A4BEDA" offset=".699"/>
            <stop stop-color="#A5BEDA" offset=".703"/>
            <stop stop-color="#A6BFDA" offset=".707"/>
            <stop stop-color="#A6BFDA" offset=".711"/>
            <stop stop-color="#A7C0DA" offset=".715"/>
            <stop stop-color="#A8C0DA" offset=".719"/>
            <stop stop-color="#A9C1DA" offset=".723"/>
            <stop stop-color="#AAC1DA" offset=".727"/>
            <stop stop-color="#ABC2DA" offset=".73"/>
            <stop stop-color="#ACC2DA" offset=".734"/>
            <stop stop-color="#ADC3DA" offset=".738"/>
            <stop stop-color="#AEC3DA" offset=".742"/>
            <stop stop-color="#AEC4DA" offset=".746"/>
            <stop stop-color="#AFC4DA" offset=".75"/>
            <stop stop-color="#B0C5DA" offset=".754"/>
            <stop stop-color="#B1C5DA" offset=".758"/>
            <stop stop-color="#B2C6DB" offset=".762"/>
            <stop stop-color="#B3C6DB" offset=".766"/>
            <stop stop-color="#B4C7DB" offset=".77"/>
            <stop stop-color="#B5C7DB" offset=".773"/>
            <stop stop-color="#B6C8DB" offset=".777"/>
            <stop stop-color="#B6C8DB" offset=".781"/>
            <stop stop-color="#B7C9DB" offset=".785"/>
            <stop stop-color="#B8C9DB" offset=".789"/>
            <stop stop-color="#B9CADB" offset=".793"/>
            <stop stop-color="#BACADB" offset=".797"/>
            <stop stop-color="#BBCBDB" offset=".801"/>
            <stop stop-color="#BCCBDB" offset=".805"/>
            <stop stop-color="#BDCCDB" offset=".809"/>
            <stop stop-color="#BECCDB" offset=".813"/>
            <stop stop-color="#BECDDB" offset=".816"/>
            <stop stop-color="#BFCDDB" offset=".82"/>
            <stop stop-color="#C0CEDB" offset=".824"/>
            <stop stop-color="#C1CEDC" offset=".828"/>
            <stop stop-color="#C2CFDC" offset=".832"/>
            <stop stop-color="#C3D0DC" offset=".836"/>
            <stop stop-color="#C4D0DC" offset=".84"/>
            <stop stop-color="#C5D1DC" offset=".844"/>
            <stop stop-color="#C6D1DC" offset=".848"/>
            <stop stop-color="#C6D2DC" offset=".852"/>
            <stop stop-color="#C7D2DC" offset=".855"/>
            <stop stop-color="#C8D3DC" offset=".859"/>
            <stop stop-color="#C9D3DC" offset=".863"/>
            <stop stop-color="#CAD4DC" offset=".867"/>
            <stop stop-color="#CBD4DC" offset=".871"/>
            <stop stop-color="#CCD5DC" offset=".875"/>
            <stop stop-color="#CDD5DC" offset=".879"/>
            <stop stop-color="#CDD6DC" offset=".883"/>
            <stop stop-color="#CED6DC" offset=".887"/>
            <stop stop-color="#CFD7DC" offset=".891"/>
            <stop stop-color="#D0D7DD" offset=".895"/>
            <stop stop-color="#D1D8DD" offset=".898"/>
            <stop stop-color="#D2D8DD" offset=".902"/>
            <stop stop-color="#D3D9DD" offset=".906"/>
            <stop stop-color="#D4D9DD" offset=".91"/>
            <stop stop-color="#D5DADD" offset=".914"/>
            <stop stop-color="#D5DADD" offset=".918"/>
            <stop stop-color="#D6DBDD" offset=".922"/>
            <stop stop-color="#D7DBDD" offset=".926"/>
            <stop stop-color="#D8DCDD" offset=".93"/>
            <stop stop-color="#D9DCDD" offset=".934"/>
            <stop stop-color="#DADDDD" offset=".938"/>
            <stop stop-color="#DBDDDD" offset=".941"/>
            <stop stop-color="#DCDEDD" offset=".945"/>
            <stop stop-color="#DDDEDD" offset=".949"/>
            <stop stop-color="#DDDFDD" offset=".953"/>
            <stop stop-color="#DEDFDD" offset=".957"/>
            <stop stop-color="#DFE0DE" offset=".961"/>
            <stop stop-color="#E0E0DE" offset=".965"/>
            <stop stop-color="#E1E1DE" offset=".969"/>
            <stop stop-color="#E2E1DE" offset=".973"/>
            <stop stop-color="#E3E2DE" offset=".977"/>
            <stop stop-color="#E4E2DE" offset=".98"/>
            <stop stop-color="#E5E3DE" offset=".984"/>
            <stop stop-color="#E5E3DE" offset=".988"/>
            <stop stop-color="#E6E4DE" offset=".992"/>
            <stop stop-color="#E7E4DE" offset=".996"/>
            <stop stop-color="#E8E5DE" offset="1"/>
        </linearGradient>
        <linearGradient x1="-50.487" gradientTransform="rotate(-135 483.5 449.545) scale(1.98041 1.98086)" y1="-13.536" x2="370.339" gradientUnits="userSpaceOnUse" y2="498.609" id="o">
            <stop stop-color="#F54B64" offset="0"/>
            <stop stop-color="#F54B64" offset=".25"/>
            <stop stop-color="#F54B64" offset=".313"/>
            <stop stop-color="#F54B64" offset=".32"/>
            <stop stop-color="#F44B65" offset=".324"/>
            <stop stop-color="#F24B65" offset=".328"/>
            <stop stop-color="#F04B66" offset=".332"/>
            <stop stop-color="#EE4C67" offset=".336"/>
            <stop stop-color="#EC4C68" offset=".34"/>
            <stop stop-color="#E94C69" offset=".344"/>
            <stop stop-color="#E74C6A" offset=".348"/>
            <stop stop-color="#E54D6B" offset=".352"/>
            <stop stop-color="#E24D6C" offset=".355"/>
            <stop stop-color="#E04D6D" offset=".359"/>
            <stop stop-color="#DE4D6E" offset=".363"/>
            <stop stop-color="#DB4D6F" offset=".367"/>
            <stop stop-color="#D94E70" offset=".371"/>
            <stop stop-color="#D74E71" offset=".375"/>
            <stop stop-color="#D44E73" offset=".379"/>
            <stop stop-color="#D24E74" offset=".383"/>
            <stop stop-color="#D04F75" offset=".387"/>
            <stop stop-color="#CD4F76" offset=".391"/>
            <stop stop-color="#CB4F77" offset=".395"/>
            <stop stop-color="#C94F78" offset=".398"/>
            <stop stop-color="#C74F79" offset=".402"/>
            <stop stop-color="#C4507A" offset=".406"/>
            <stop stop-color="#C2507B" offset=".41"/>
            <stop stop-color="#C0507C" offset=".414"/>
            <stop stop-color="#BD507D" offset=".418"/>
            <stop stop-color="#BB517E" offset=".422"/>
            <stop stop-color="#B9517F" offset=".426"/>
            <stop stop-color="#B65180" offset=".43"/>
            <stop stop-color="#B45181" offset=".434"/>
            <stop stop-color="#B25182" offset=".438"/>
            <stop stop-color="#AF5283" offset=".441"/>
            <stop stop-color="#AD5284" offset=".445"/>
            <stop stop-color="#AB5285" offset=".449"/>
            <stop stop-color="#A95286" offset=".453"/>
            <stop stop-color="#A65387" offset=".457"/>
            <stop stop-color="#A45388" offset=".461"/>
            <stop stop-color="#A25389" offset=".465"/>
            <stop stop-color="#9F538A" offset=".469"/>
            <stop stop-color="#9D538B" offset=".473"/>
            <stop stop-color="#9B548C" offset=".477"/>
            <stop stop-color="#98548D" offset=".48"/>
            <stop stop-color="#96548E" offset=".484"/>
            <stop stop-color="#94548F" offset=".488"/>
            <stop stop-color="#915490" offset=".492"/>
            <stop stop-color="#8F5591" offset=".496"/>
            <stop stop-color="#8D5592" offset=".5"/>
            <stop stop-color="#8B5594" offset=".504"/>
            <stop stop-color="#885595" offset=".508"/>
            <stop stop-color="#865696" offset=".512"/>
            <stop stop-color="#845697" offset=".516"/>
            <stop stop-color="#815698" offset=".52"/>
            <stop stop-color="#7F5699" offset=".523"/>
            <stop stop-color="#7D569A" offset=".527"/>
            <stop stop-color="#7A579B" offset=".531"/>
            <stop stop-color="#78579C" offset=".535"/>
            <stop stop-color="#76579D" offset=".539"/>
            <stop stop-color="#73579E" offset=".543"/>
            <stop stop-color="#71589F" offset=".547"/>
            <stop stop-color="#6F58A0" offset=".551"/>
            <stop stop-color="#6D58A1" offset=".555"/>
            <stop stop-color="#6A58A2" offset=".559"/>
            <stop stop-color="#6858A3" offset=".563"/>
            <stop stop-color="#6659A4" offset=".566"/>
            <stop stop-color="#6359A5" offset=".57"/>
            <stop stop-color="#6159A6" offset=".574"/>
            <stop stop-color="#5F59A7" offset=".578"/>
            <stop stop-color="#5C5AA8" offset=".582"/>
            <stop stop-color="#5A5AA9" offset=".586"/>
            <stop stop-color="#585AAA" offset=".59"/>
            <stop stop-color="#555AAB" offset=".594"/>
            <stop stop-color="#535AAC" offset=".598"/>
            <stop stop-color="#515BAD" offset=".602"/>
            <stop stop-color="#4E5BAE" offset=".605"/>
            <stop stop-color="#4C5BAF" offset=".609"/>
            <stop stop-color="#4A5BB0" offset=".613"/>
            <stop stop-color="#485CB1" offset=".617"/>
            <stop stop-color="#455CB2" offset=".621"/>
            <stop stop-color="#435CB3" offset=".625"/>
            <stop stop-color="#415CB4" offset=".629"/>
            <stop stop-color="#3E5CB6" offset=".633"/>
            <stop stop-color="#3C5DB7" offset=".637"/>
            <stop stop-color="#3A5DB8" offset=".641"/>
            <stop stop-color="#375DB9" offset=".645"/>
            <stop stop-color="#355DBA" offset=".648"/>
            <stop stop-color="#335EBB" offset=".652"/>
            <stop stop-color="#305EBC" offset=".656"/>
            <stop stop-color="#2E5EBD" offset=".66"/>
            <stop stop-color="#2C5EBE" offset=".664"/>
            <stop stop-color="#2A5EBF" offset=".668"/>
            <stop stop-color="#275FC0" offset=".672"/>
            <stop stop-color="#255FC1" offset=".676"/>
            <stop stop-color="#235FC2" offset=".68"/>
            <stop stop-color="#205FC3" offset=".684"/>
            <stop stop-color="#1E60C4" offset=".688"/>
            <stop stop-color="#1C60C5" offset=".691"/>
            <stop stop-color="#1960C6" offset=".695"/>
            <stop stop-color="#1760C7" offset=".699"/>
            <stop stop-color="#1560C8" offset=".703"/>
            <stop stop-color="#1261C9" offset=".707"/>
            <stop stop-color="#1061CA" offset=".711"/>
            <stop stop-color="#0E61CB" offset=".715"/>
            <stop stop-color="#0C61CC" offset=".719"/>
            <stop stop-color="#0962CD" offset=".723"/>
            <stop stop-color="#0762CE" offset=".727"/>
            <stop stop-color="#0662CF" offset=".73"/>
            <stop stop-color="#0562CF" offset=".734"/>
            <stop stop-color="#0562CF" offset=".75"/>
            <stop stop-color="#0562CF" offset="1"/>
        </linearGradient>
    </defs>
    <g clip-path="url(#a)">
        <g clip-path="url(#b)">
            <g clip-path="url(#c)">
                <g clip-path="url(#d)">
                    <path fill="url(#e)" d="m122.969 403.137.097 640.004 404.977.058-.094-640zm0 0"/>
                </g>
            </g>
        </g>
    </g>
    <g clip-path="url(#f)">
        <g clip-path="url(#g)">
            <g clip-path="url(#h)">
                <g clip-path="url(#i)">
                    <path fill="url(#j)" d="m744.762 401.988-.106 241.77 340.653-.145.105-241.77zm0 0"/>
                </g>
            </g>
        </g>
    </g>
    <g clip-path="url(#k)">
        <g clip-path="url(#l)">
            <g clip-path="url(#m)">
                <g clip-path="url(#n)">
                    <path fill="url(#o)" d="m601.121 1203.063 659.59-659.59-659.59-659.59-659.59 659.59zm0 0"/>
                </g>
            </g>
        </g>
    </g>
</svg>
