<svg width="52" height="63" fill="none" xmlns="http://www.w3.org/2000/svg">
    <path d="M23.817 58.788h-5.764c-.884 0-1.983-.178-2.828.123-1.57.56-1.768 2.922-.326 3.765.576.338 1.32.233 1.958.233h14.246c1.666 0 3.46.194 5.112-.02 1.955-.254 2.19-3.2.435-3.936-.832-.349-1.945-.165-2.828-.165H27.95v-17.6c0-.583-.12-1.337.08-1.893.237-.654.87-1.243 1.29-1.782l2.698-3.453 8.961-11.473 8.527-10.915c.925-1.186 2.828-2.854 2.128-4.567-.523-1.282-1.66-1.226-2.803-1.226H2.61C1.447 5.88.206 6.11.02 7.55c-.16 1.24.672 2.112 1.372 3.008l4.35 5.569 11.92 15.26c1.942 2.487 4.194 4.912 5.9 7.574.357.557.255 1.257.255 1.894v17.933Z" fill="#F1F2F4"/>
</svg>
