<svg width="68" height="50" fill="none" xmlns="http://www.w3.org/2000/svg">
    <path fill-rule="evenodd" clip-rule="evenodd" d="M22.222 44.444C9.95 44.444 0 34.495 0 22.222 0 9.95 9.95 0 22.222 0c12.273 0 22.222 9.95 22.222 22.222 0 5.136-1.741 9.864-4.667 13.627l9.41 9.409a2.778 2.778 0 1 1-3.929 3.928l-9.409-9.409a22.127 22.127 0 0 1-13.627 4.667Zm0-5.555c9.205 0 16.667-7.462 16.667-16.667 0-9.205-7.462-16.666-16.667-16.666-9.205 0-16.666 7.462-16.666 16.666 0 9.205 7.462 16.667 16.666 16.667Z" fill="#F1F2F4"/>
</svg>
