<svg width="75" height="68" viewBox="10 15 70 25" fill="none" xmlns="http://www.w3.org/2000/svg">
    <path fill-rule="evenodd" clip-rule="evenodd" d="M45.446 29.414a9.138 9.138 0 1 0 0-18.276 9.138 9.138 0 0 0 0 18.276Zm1.999 24.027H31.882a4.352 4.352 0 0 1-3.088-1.327 4.474 4.474 0 0 1-1.258-3.151c0-9.264 7.944-16.798 17.828-17.01.053-.005.082-.005.082-.005l.17.001h.176s.02 0 .056.003c9.888.2 17.509 7.74 17.509 17.01a4.474 4.474 0 0 1-1.258 3.152 4.352 4.352 0 0 1-3.088 1.326h-8.788v.001a18677.404 18677.404 0 0 1-2.778 0Z" fill="#F1F2F4"/>
    <path fill-rule="evenodd" clip-rule="evenodd" d="M55.66 20.706a8.063 8.063 0 1 0 16.126 0 8.063 8.063 0 0 0-16.127 0Zm9.334 27.134c-.11-1.162-.235-2.47-.407-3.329-.35-1.748-1.63-5.395-4.381-8.174-.85-.858-1.078-3-.453-4.303.453-.943 1.529-1.524 2.336-1.545h.86c9.202 0 16.663 8.966 16.663 17.427a4 4 0 0 1-3.967 4.032h-8.353c-.69 0-1.118-.27-1.54-.788-.218-.27-.526-1.135-.61-1.857a73.053 73.053 0 0 1-.148-1.463ZM35.233 20.706a8.063 8.063 0 1 1-16.126 0 8.063 8.063 0 0 1 16.126 0ZM25.9 47.84c.11-1.162.235-2.47.407-3.33.35-1.747 1.629-5.394 4.381-8.173.85-.858 1.078-3 .453-4.303-.453-.943-1.529-1.524-2.336-1.545h-.86c-9.202 0-16.663 8.966-16.663 17.427a4 4 0 0 0 3.967 4.032H23.6c.69 0 1.118-.27 1.54-.788.218-.27.526-1.135.61-1.857.049-.417.097-.924.148-1.463Z" fill="#F1F2F4"/>
</svg>
