<svg width="40" height="47" viewBox="0 0 30 35" fill="none" xmlns="http://www.w3.org/2000/svg">
    <path fill-rule="evenodd" clip-rule="evenodd" d="M13.906 15.126c3.903 0 7.067-3.223 7.067-7.2 0-3.976-3.164-7.2-7.067-7.2S6.84 3.95 6.84 7.926c0 3.977 3.164 7.2 7.067 7.2zm1.548 18.931H3.417a3.336 3.336 0 0 1-2.388-1.045 3.56 3.56 0 0 1-.973-2.483c0-7.299 6.142-13.235 13.786-13.402.042-.004.064-.004.064-.004a14.592 14.592 0 0 1 .31.003c7.647.157 13.541 6.098 13.541 13.403a3.561 3.561 0 0 1-.973 2.483 3.336 3.336 0 0 1-2.388 1.045H17.6a11189.35 11189.35 0 0 1-2.146 0z" fill="#F1F2F4"/>
</svg>